<svg xmlns="http://www.w3.org/2000/svg" width="300" height="300" viewBox="0 0 300 300">
  <g transform="translate(-2.72 -3.21)">
    <g transform="translate(2.72 3.21)">
      <path d="M50.869,303.2A48.2,48.2,0,0,1,2.72,255.052V3.21H254.571A48.2,48.2,0,0,1,302.72,51.357V303.2Z" transform="translate(-2.72 -3.21)" fill="#00be28"/>
    </g>
    <path d="M142.326,226.41H86.785c-10.1,0-15.917-4.18-19.586-13.29L32.31,125.63H69.648c10.1,0,16.225,4.33,19.433,13.59l15.456,44.49h6.119L145.39,90.55h67.02c33.054,0,51.41,15.23,51.41,42.55,0,14.78-7.5,27.02-21.267,34.49a204.555,204.555,0,0,1,8.107,19.11c9.942,25.68,15.917,33.59,22.19,39.71H237.5c-15.917,0-25.551-6.87-31.373-21.65l-21.575-55.39a41.609,41.609,0,0,0,8.876.75c13.314,0,20.652-4.48,20.652-12.69s-5.965-11.79-18.213-11.79H181.785l-39.48,100.77Z" transform="translate(0 3.222)" fill="#fff"/>
  </g>
</svg>
